<svg width="520" height="520" viewBox="0 0 520 520" fill="none" xmlns="http://www.w3.org/2000/svg">
<path d="M433.333 502.667V520H86.6667V502.667H433.333ZM502.667 433.333V86.6667C502.667 48.3749 471.625 17.3333 433.333 17.3333H86.6667C48.3749 17.3333 17.3333 48.3749 17.3333 86.6667V433.333C17.3333 471.625 48.3749 502.667 86.6667 502.667V520C38.802 520 0 481.198 0 433.333V86.6667C7.14792e-06 38.802 38.802 0 86.6667 0H433.333C481.198 0 520 38.802 520 86.6667V433.333C520 481.198 481.198 520 433.333 520V502.667C471.625 502.667 502.667 471.625 502.667 433.333Z" fill="white"/>
<path d="M38.1333 39.8667C173.697 39.8667 309.261 39.8667 448.933 39.8667C448.933 175.431 448.933 310.995 448.933 450.667C313.369 450.667 177.805 450.667 38.1333 450.667C38.1333 315.103 38.1333 179.539 38.1333 39.8667Z" fill="#1A2F59"/>
<path d="M252.201 122.781C256.034 124.895 258.498 128.338 259.764 132.481C260.187 134.152 260.434 135.703 260.436 137.43C260.436 137.816 260.437 138.202 260.437 138.6C260.436 138.999 260.434 139.398 260.433 139.809C260.434 140.21 260.436 140.612 260.437 141.026C260.437 141.411 260.436 141.797 260.436 142.194C260.435 142.72 260.435 142.72 260.434 143.256C260.383 144.171 260.383 144.171 259.981 145.375C265.542 145.375 271.102 145.375 276.831 145.375C276.698 144.845 276.566 144.316 276.429 143.77C276.076 137.741 276.763 132.534 280.708 127.709C283.011 125.232 285.705 123.843 289.082 123.616C292.407 123.526 295.112 123.669 298.093 125.316C298.515 125.548 298.937 125.78 299.371 126.018C303.125 129.021 305.171 132.946 305.715 137.753C305.759 139.207 305.753 140.66 305.74 142.115C305.738 142.506 305.736 142.897 305.735 143.3C305.73 144.259 305.723 145.218 305.715 146.177C306.1 146.173 306.486 146.168 306.882 146.163C311.851 146.124 316.8 146.331 321.762 146.578C321.756 146.344 321.749 146.11 321.743 145.869C321.717 144.785 321.702 143.701 321.687 142.617C321.672 142.065 321.672 142.065 321.656 141.501C321.607 136.864 323.01 132.847 326.073 129.325C328.818 126.688 332.2 125.227 336.003 125.091C340.321 125.297 343.486 126.55 346.584 129.583C350.817 134.29 351.326 139.656 351.047 145.776C350.915 146.306 350.783 146.835 350.646 147.381C355.809 147.381 360.972 147.381 366.292 147.381C366.292 144.998 366.292 142.615 366.292 140.16C367.08 135.757 369.104 131.925 372.653 129.102C375.938 126.9 379.233 126.432 383.141 126.921C387.372 128.026 390.57 130.423 392.92 134.092C394.759 137.479 395.246 140.287 395.204 144.11C395.201 144.64 395.201 144.64 395.198 145.181C395.193 146.048 395.185 146.915 395.176 147.782C395.402 147.777 395.627 147.771 395.859 147.766C398.241 147.712 400.624 147.676 403.007 147.65C403.891 147.638 404.776 147.621 405.661 147.6C411.102 147.474 415.771 147.728 420.828 149.849C421.664 150.193 422.507 150.515 423.354 150.831C423.638 150.937 423.922 151.042 424.215 151.152C424.429 151.231 424.643 151.311 424.863 151.392C424.88 158.962 424.896 166.532 424.789 174.101C424.784 174.512 424.784 174.512 424.778 174.931C424.757 176.383 424.736 177.835 424.715 179.287C424.474 195.737 424.371 212.187 424.267 228.638C424.232 234.219 424.197 239.801 424.161 245.383C424.159 245.704 424.157 246.026 424.155 246.357C424.083 257.537 423.987 268.716 423.873 279.896C423.698 296.998 423.581 314.101 423.478 331.204C423.237 371.222 423.237 371.222 423.082 390.239C423.066 392.235 423.05 394.231 423.036 396.228C423.019 398.518 423.001 400.808 422.981 403.099C422.974 403.927 422.967 404.755 422.962 405.583C422.954 406.696 422.944 407.809 422.933 408.923C422.931 409.249 422.93 409.575 422.928 409.911C422.903 412.108 422.903 412.108 422.456 412.555C420.752 412.744 419.979 412.381 418.651 411.335C418.312 411.072 417.973 410.809 417.624 410.538C417.266 410.252 416.908 409.966 416.539 409.672C416.167 409.382 415.795 409.092 415.412 408.794C414.649 408.199 413.887 407.602 413.127 407.003C411.533 405.749 409.925 404.512 408.315 403.278C408.037 403.065 407.759 402.851 407.472 402.631C405.565 401.175 403.623 399.798 401.595 398.514C397.949 402.686 397.949 402.686 394.399 406.939C394.112 407.286 393.824 407.634 393.528 407.992C392.775 408.908 392.775 408.908 392.211 409.797C390.992 411.561 389.899 411.983 387.805 412.43C387.086 412.545 387.086 412.545 386.352 412.661C384.897 412.908 383.537 413.325 382.127 413.761C377.137 415.102 371.882 414.936 366.751 415.037C365.811 415.057 364.872 415.079 363.933 415.101C346.736 415.513 329.532 415.485 312.331 415.467C309.218 415.464 306.105 415.465 302.991 415.468C267.077 415.506 267.077 415.506 251.937 414.717C247.728 414.501 243.515 414.384 239.302 414.262C238.529 414.239 237.756 414.216 236.983 414.193C235.44 414.147 233.897 414.101 232.354 414.055C219.106 413.661 205.877 413.186 192.649 412.346C189.447 412.147 186.244 412.014 183.038 411.901C173.938 411.56 173.938 411.56 172.526 410.148C172.449 409.12 172.425 408.143 172.441 407.114C172.444 406.797 172.447 406.48 172.449 406.154C172.505 402.167 172.748 398.188 172.996 394.209C173.077 392.9 173.154 391.59 173.231 390.281C173.476 386.2 173.773 382.139 174.254 378.078C174.558 375.508 174.732 372.94 174.883 370.357C175.292 363.946 175.969 357.569 176.645 351.182C176.947 348.315 177.221 345.446 177.49 342.576C178.71 329.782 180.015 316.982 181.728 304.244C182.079 301.631 182.408 299.015 182.731 296.399C182.807 295.78 182.807 295.78 182.885 295.149C182.99 294.301 183.095 293.452 183.199 292.604C183.926 286.732 184.658 280.862 185.489 275.004C185.553 274.549 185.617 274.094 185.682 273.626C185.77 273.019 185.77 273.019 185.86 272.399C185.935 271.883 185.935 271.883 186.011 271.357C186.166 270.54 186.166 270.54 186.567 269.738C186.657 269.122 186.731 268.503 186.793 267.883C186.826 267.555 186.86 267.227 186.894 266.889C186.919 266.638 186.943 266.387 186.968 266.128C186.424 266.132 186.424 266.132 185.868 266.136C182.433 266.16 178.999 266.178 175.564 266.19C173.798 266.196 172.033 266.205 170.268 266.218C168.561 266.232 166.855 266.239 165.148 266.242C164.5 266.244 163.852 266.248 163.203 266.255C159.724 266.289 156.55 266.24 153.27 264.924C152.863 264.776 152.457 264.629 152.039 264.477C150.901 264.011 149.765 263.544 148.631 263.069C148.21 262.892 147.79 262.716 147.356 262.534C142.302 260.383 137.486 257.934 132.995 254.756C131.815 253.905 131.815 253.905 130.419 253.775C128.708 254.438 127.739 255.776 126.792 257.302C126.056 259.309 125.607 261.359 125.163 263.445C125.03 264.032 124.896 264.619 124.762 265.206C124.424 266.694 124.097 268.184 123.772 269.675C123.476 271.03 123.167 272.382 122.859 273.734C121.693 278.732 121.693 278.732 120.775 283.779C121.089 283.887 121.404 283.994 121.728 284.105C122.781 284.582 122.781 284.582 123.583 285.785C123.723 288.758 123.315 291.667 122.941 294.611C122.831 295.49 122.725 296.369 122.619 297.249C122.549 297.813 122.478 298.377 122.408 298.941C122.345 299.448 122.282 299.954 122.217 300.477C121.881 302.387 121.474 303.771 119.972 305.041C116.816 305.734 114.093 305.12 110.976 304.438C110.447 304.327 109.918 304.216 109.389 304.105C108.271 303.872 107.154 303.636 106.038 303.397C103.51 302.86 100.976 302.353 98.4422 301.842C97.0069 301.553 95.572 301.261 94.1371 300.969C93.5542 300.85 92.9714 300.732 92.3885 300.613C92.0971 300.554 91.8056 300.495 91.5054 300.434C79.9031 298.075 79.9031 298.075 68.2964 295.739C67.7877 295.637 67.279 295.535 66.7549 295.43C66.2847 295.336 65.8145 295.242 65.33 295.145C64.8901 295.056 64.4502 294.967 63.997 294.875C62.9648 294.679 61.9386 294.504 60.9008 294.345C60.6118 294.298 60.3229 294.251 60.0251 294.203C59.213 294.072 58.3995 293.949 57.586 293.827C55.9476 293.336 55.2501 292.717 54.1802 291.401C53.9561 290.449 53.9561 290.449 54.0047 289.396C54.0233 288.98 54.0419 288.565 54.0611 288.137C54.1004 287.626 54.1397 287.114 54.1802 286.587C54.2139 286.092 54.2139 286.092 54.2484 285.587C54.3261 284.473 54.4141 283.362 54.5062 282.25C54.5481 281.711 54.5481 281.711 54.5909 281.161C54.794 278.997 55.1485 277.276 56.1861 275.355C57.922 274.197 59.575 274.355 61.5602 274.738C62.0323 274.847 62.0323 274.847 62.5139 274.96C62.8332 275.033 63.1525 275.107 63.4814 275.183C63.7217 275.239 63.962 275.296 64.2095 275.355C64.2086 275.012 64.2077 274.67 64.2068 274.318C64.1346 245.249 64.1346 245.249 64.2932 236.803C64.3041 236.187 64.3125 235.571 64.3181 234.954C64.3682 230.007 65.4597 225.87 67.82 221.522C67.9741 221.237 68.1281 220.952 68.2867 220.658C70.8272 216.075 73.7978 211.853 77.4732 208.108C77.7914 207.781 77.7914 207.781 78.116 207.447C82.2025 203.464 86.9498 201.783 92.2479 199.982C94.3909 199.254 96.5274 198.507 98.6648 197.762C99.1011 197.611 99.5374 197.46 99.9868 197.304C104.509 195.73 108.996 194.068 113.478 192.387C113.838 192.252 114.198 192.118 114.569 191.979C115.265 191.718 115.962 191.457 116.658 191.196C117.61 190.839 118.562 190.483 119.514 190.127C120.527 189.748 121.537 189.366 122.547 188.98C128.723 186.654 133.213 188.403 139.169 190.611C141.376 191.426 143.599 192.189 145.828 192.944C146.192 193.067 146.557 193.191 146.933 193.318C148.042 193.693 149.151 194.068 150.261 194.443C162.646 198.629 162.646 198.629 164.101 201.539C164.172 202.297 164.209 203.059 164.227 203.821C164.242 204.228 164.257 204.635 164.272 205.054C164.101 206.353 164.101 206.353 162.497 209.161C175.073 209.161 187.65 209.161 200.608 209.161C201.27 205.322 201.932 201.483 202.614 197.527C203.603 192.7 203.603 192.7 204.029 190.719C204.805 187.051 205.525 183.372 206.251 179.694C206.324 179.326 206.396 178.957 206.471 178.578C206.923 176.29 207.374 174.001 207.825 171.712C208.358 169.011 208.891 166.309 209.424 163.607C209.772 161.843 210.12 160.078 210.468 158.314C210.597 157.66 210.726 157.007 210.856 156.354C211.201 154.619 211.538 152.883 211.866 151.145C211.937 150.776 212.008 150.406 212.081 150.026C212.218 149.315 212.352 148.603 212.484 147.891C212.954 145.465 212.954 145.465 213.847 144.573C214.644 144.476 214.644 144.476 215.632 144.481C216.001 144.482 216.371 144.482 216.751 144.482C217.151 144.486 217.55 144.49 217.962 144.494C218.37 144.495 218.779 144.496 219.2 144.498C220.508 144.502 221.816 144.512 223.124 144.522C224.009 144.526 224.895 144.53 225.78 144.533C227.953 144.542 230.127 144.556 232.301 144.573C232.244 144.329 232.187 144.086 232.129 143.836C232.019 143.354 232.019 143.354 231.907 142.862C231.797 142.386 231.797 142.386 231.685 141.9C230.716 137.046 231.571 132.006 234.103 127.777C238.306 121.831 245.481 119.899 252.201 122.781Z" fill="white"/>
<path d="M406.008 204.748C406.14 204.748 406.273 204.748 406.409 204.748C406.492 207.367 406.166 209.792 405.732 212.371C404.978 217.039 404.373 221.717 403.802 226.412C403.198 231.353 402.566 236.282 401.768 241.197C401.29 244.154 400.881 247.117 400.48 250.085C400.092 252.954 399.693 255.821 399.287 258.687C399.166 259.54 399.046 260.392 398.926 261.245C398.743 262.536 398.56 263.828 398.376 265.12C397.737 269.616 397.124 274.107 396.651 278.624C396.456 280.436 396.164 282.192 395.775 283.97C395.375 286.021 395.168 288.102 394.923 290.175C394.407 294.533 393.837 298.876 393.145 303.211C392.601 306.623 392.136 310.034 391.741 313.466C391.394 316.48 390.994 319.468 390.47 322.456C389.89 325.809 389.415 329.178 388.933 332.547C388.891 332.841 388.848 333.136 388.804 333.44C388.343 336.644 387.911 339.847 387.543 343.063C387.217 345.914 386.808 348.744 386.351 351.577C386.187 352.612 386.024 353.648 385.862 354.683C385.776 355.224 385.691 355.764 385.606 356.305C385.564 356.576 385.521 356.846 385.477 357.125C385.391 357.671 385.305 358.217 385.218 358.762C384.673 362.203 384.173 365.644 383.722 369.098C383.501 370.743 383.239 372.38 382.966 374.018C382.521 376.753 382.159 379.49 381.837 382.242C381.17 387.87 380.241 393.459 379.335 399.053C379.276 399.421 379.216 399.789 379.154 400.169C379.038 400.891 378.921 401.613 378.803 402.335C378.397 404.854 378.029 407.376 377.691 409.906C377.525 410.951 377.525 410.951 377.124 412.154C356.915 412.655 336.702 412.644 316.488 412.651C311.947 412.653 307.406 412.658 302.865 412.668C268.302 412.746 233.82 412.028 199.303 410.226C197.72 410.144 196.137 410.064 194.555 409.985C191.873 409.851 189.191 409.714 186.51 409.575C185.504 409.523 184.498 409.472 183.492 409.421C182.123 409.351 180.754 409.278 179.385 409.205C178.977 409.185 178.57 409.164 178.15 409.143C177.782 409.123 177.414 409.103 177.035 409.082C176.714 409.065 176.393 409.048 176.062 409.031C175.334 408.945 175.334 408.945 174.933 408.544C174.768 405.624 174.943 402.685 175.108 399.768C175.124 399.487 175.14 399.206 175.156 398.916C175.233 397.678 175.341 396.461 175.528 395.234C175.836 392.951 175.932 390.659 176.061 388.36C177.276 367.925 179.148 347.492 181.671 327.177C181.948 324.938 182.192 322.71 182.347 320.46C182.5 318.317 182.797 316.228 183.141 314.109C183.583 311.157 183.869 308.184 184.185 305.217C184.322 303.929 184.461 302.641 184.6 301.354C184.631 301.063 184.661 300.771 184.693 300.471C184.835 299.155 185.02 297.895 185.363 296.617C185.441 295.85 185.516 295.084 185.582 294.316C186.06 288.744 186.925 283.227 187.761 277.701C188.122 275.309 188.466 272.915 188.806 270.521C188.861 270.135 188.916 269.749 188.973 269.351C189.107 268.411 189.241 267.47 189.375 266.529C198.978 266.516 208.581 266.508 218.184 266.504C218.722 266.503 218.722 266.503 219.271 266.503C238.468 266.494 257.663 266.525 276.859 266.715C278.283 266.729 279.707 266.743 281.131 266.757C284.697 266.791 288.262 266.826 291.827 266.861C301.839 266.962 301.839 266.962 311.851 267.023C312.829 267.028 313.806 267.034 314.783 267.044C321.757 267.108 328.241 266.629 334.875 264.297C335.278 264.159 335.681 264.02 336.097 263.877C346.387 260.256 356.439 255.383 365.49 249.278C365.898 249.003 365.898 249.003 366.315 248.723C376.388 241.894 386.134 233.691 393.572 224.005C393.891 223.603 394.21 223.201 394.539 222.787C399.012 217.127 402.619 211.111 406.008 204.748Z" fill="white"/>
<path d="M406.008 204.748C406.14 204.748 406.273 204.748 406.409 204.748C406.492 207.367 406.166 209.792 405.732 212.371C404.978 217.039 404.373 221.717 403.802 226.412C403.198 231.353 402.566 236.282 401.768 241.197C401.29 244.154 400.881 247.117 400.48 250.085C400.092 252.954 399.693 255.821 399.287 258.687C399.166 259.54 399.046 260.392 398.926 261.245C398.743 262.536 398.56 263.828 398.376 265.12C397.737 269.616 397.124 274.107 396.651 278.624C396.456 280.436 396.164 282.192 395.775 283.97C395.375 286.021 395.168 288.102 394.923 290.175C394.407 294.533 393.837 298.876 393.145 303.211C392.601 306.623 392.136 310.034 391.741 313.466C391.394 316.48 390.994 319.468 390.47 322.456C389.89 325.809 389.415 329.178 388.933 332.547C388.891 332.841 388.848 333.136 388.804 333.44C388.343 336.644 387.911 339.847 387.543 343.063C387.217 345.914 386.808 348.744 386.351 351.577C386.187 352.612 386.024 353.648 385.862 354.683C385.776 355.224 385.691 355.764 385.606 356.305C385.564 356.576 385.521 356.846 385.477 357.125C385.391 357.671 385.305 358.217 385.218 358.762C384.673 362.203 384.173 365.644 383.722 369.098C383.501 370.743 383.239 372.38 382.966 374.018C382.521 376.753 382.159 379.49 381.837 382.242C381.17 387.87 380.241 393.459 379.335 399.053C379.276 399.421 379.216 399.789 379.154 400.169C379.038 400.891 378.921 401.613 378.803 402.335C378.397 404.854 378.029 407.376 377.691 409.906C377.525 410.951 377.525 410.951 377.124 412.154C356.915 412.655 336.702 412.644 316.488 412.651C311.947 412.653 307.406 412.658 302.865 412.668C268.302 412.746 233.82 412.028 199.303 410.226C197.72 410.144 196.137 410.064 194.555 409.985C191.873 409.851 189.191 409.714 186.51 409.575C185.504 409.523 184.498 409.472 183.492 409.421C182.123 409.351 180.754 409.278 179.385 409.205C178.977 409.185 178.57 409.164 178.15 409.143C177.782 409.123 177.414 409.103 177.035 409.082C176.714 409.065 176.393 409.048 176.062 409.031C175.334 408.945 175.334 408.945 174.933 408.544C174.768 405.624 174.943 402.685 175.108 399.768C175.124 399.487 175.14 399.206 175.156 398.916C175.233 397.678 175.341 396.461 175.528 395.234C175.836 392.951 175.932 390.659 176.061 388.36C177.276 367.925 179.148 347.492 181.671 327.177C181.948 324.938 182.192 322.71 182.347 320.46C182.5 318.317 182.797 316.228 183.141 314.109C183.583 311.157 183.869 308.184 184.185 305.217C184.322 303.929 184.461 302.641 184.6 301.354C184.631 301.063 184.661 300.771 184.693 300.471C184.835 299.155 185.02 297.895 185.363 296.617C185.441 295.85 185.516 295.084 185.582 294.316C186.06 288.744 186.925 283.227 187.761 277.701C188.122 275.309 188.466 272.915 188.806 270.521C188.861 270.135 188.916 269.749 188.973 269.351C189.107 268.411 189.241 267.47 189.375 266.529C198.978 266.516 208.581 266.508 218.184 266.504C218.722 266.503 218.722 266.503 219.271 266.503C238.468 266.494 257.663 266.525 276.859 266.715C278.283 266.729 279.707 266.743 281.131 266.757C284.697 266.791 288.262 266.826 291.827 266.861C301.839 266.962 301.839 266.962 311.851 267.023C312.829 267.028 313.806 267.034 314.783 267.044C321.757 267.108 328.241 266.629 334.875 264.297C335.278 264.159 335.681 264.02 336.097 263.877C346.387 260.256 356.439 255.383 365.49 249.278C365.898 249.003 365.898 249.003 366.315 248.723C376.388 241.894 386.134 233.691 393.572 224.005C393.891 223.603 394.21 223.201 394.539 222.787C399.012 217.127 402.619 211.111 406.008 204.748ZM206.626 288.192C206.386 289.193 206.19 290.172 206.018 291.185C205.963 291.492 205.908 291.799 205.852 292.115C205.672 293.13 205.497 294.146 205.322 295.162C205.197 295.873 205.072 296.583 204.947 297.294C204.565 299.474 204.19 301.656 203.817 303.838C203.761 304.165 203.705 304.493 203.647 304.83C202.487 311.613 201.379 318.403 200.307 325.2C200.227 325.703 200.148 326.206 200.066 326.724C199.581 329.831 199.164 332.941 198.783 336.062C198.635 337.267 198.48 338.471 198.317 339.674C196.911 350.053 195.836 360.469 194.85 370.896C194.762 371.823 194.673 372.751 194.584 373.678C194.109 378.611 193.71 383.541 193.479 388.493C193.457 388.924 193.435 389.355 193.412 389.799C193.396 390.194 193.38 390.589 193.364 390.997C193.349 391.346 193.333 391.694 193.318 392.054C193.302 392.987 193.302 392.987 194.189 393.7C195.138 393.844 195.138 393.844 196.269 393.852C196.946 393.872 196.946 393.872 197.637 393.893C198.146 393.904 198.655 393.915 199.179 393.926C199.734 393.94 200.288 393.955 200.843 393.97C202.426 394.011 204.009 394.046 205.591 394.079C206.641 394.102 207.691 394.126 208.741 394.15C217.053 394.34 225.366 394.485 233.68 394.589C233.966 394.592 234.252 394.596 234.546 394.6C235.731 394.614 236.916 394.629 238.1 394.644C238.709 394.651 239.318 394.659 239.927 394.667C240.544 394.674 241.162 394.682 241.779 394.69C253.414 394.834 265.046 395.072 276.678 395.332C289.371 395.616 302.062 395.825 314.757 395.965C316.367 395.983 317.978 396.001 319.588 396.02C319.896 396.023 320.203 396.026 320.52 396.03C325.601 396.088 330.68 396.182 335.76 396.306C341.35 396.441 346.94 396.565 352.532 396.601C353.188 396.606 353.844 396.613 354.5 396.622C355.386 396.634 356.271 396.638 357.157 396.64C357.656 396.644 358.154 396.648 358.667 396.651C359.845 396.613 359.845 396.613 360.525 396.025C361.234 395.1 361.329 394.416 361.489 393.264C361.549 392.847 361.609 392.43 361.672 392C361.762 391.321 361.762 391.321 361.854 390.629C361.954 389.924 361.954 389.924 362.056 389.205C362.269 387.695 362.475 386.185 362.681 384.674C362.888 383.191 363.096 381.708 363.305 380.225C363.441 379.255 363.576 378.285 363.711 377.315C364.136 374.261 364.595 371.215 365.086 368.171C365.542 365.33 365.924 362.48 366.292 359.626C366.77 355.972 367.272 352.325 367.838 348.684C368.154 346.608 368.436 344.529 368.701 342.446C368.736 342.17 368.771 341.895 368.807 341.611C368.981 340.237 369.153 338.863 369.323 337.489C369.636 334.994 369.999 332.54 370.519 330.08C370.873 328.234 371.051 326.365 371.256 324.498C371.656 321.026 372.116 317.571 372.661 314.118C373.282 310.151 373.896 306.183 374.479 302.21C374.569 301.599 374.661 300.989 374.753 300.378C375.672 295.099 375.672 295.099 375.519 289.797C374.758 288.793 374.335 288.6 373.112 288.192C372.532 288.135 371.949 288.098 371.367 288.073C371.017 288.057 370.667 288.041 370.307 288.025C369.929 288.01 369.552 287.995 369.163 287.98C368.768 287.963 368.374 287.947 367.969 287.929C363.869 287.763 359.768 287.66 355.666 287.576C355.273 287.568 354.881 287.56 354.477 287.551C346.235 287.378 337.993 287.299 329.75 287.234C314.398 287.112 299.05 286.889 283.701 286.587C280.111 286.517 276.52 286.447 272.93 286.377C272.497 286.369 272.063 286.361 271.616 286.352C259.091 286.11 246.565 285.929 234.038 285.81C232.065 285.791 230.091 285.768 228.117 285.744C225.508 285.711 222.898 285.688 220.288 285.671C219.351 285.663 218.415 285.654 217.479 285.641C216.222 285.624 214.965 285.618 213.709 285.614C213.347 285.607 212.985 285.6 212.612 285.593C209.983 285.602 208.516 286.301 206.626 288.192Z" fill="#1A2F59"/>
<path d="M210.236 174.259C222.087 174.152 233.91 174.336 245.754 174.747C246.821 174.784 247.888 174.821 248.955 174.858C249.478 174.876 250.001 174.894 250.539 174.913C256.509 175.114 262.479 175.229 268.451 175.326C271.82 175.383 275.179 175.465 278.543 175.662C282.791 175.909 287.04 175.975 291.293 176.043C303.455 176.238 303.455 176.238 309.025 176.466C312.105 176.591 315.184 176.685 318.266 176.738C326.038 176.875 333.807 177.056 341.576 177.332C342.095 177.351 342.095 177.351 342.625 177.37C345.545 177.474 348.464 177.579 351.384 177.684C364.7 178.164 378.016 178.521 391.338 178.791C392.76 178.82 394.182 178.85 395.604 178.88C396.566 178.9 397.527 178.918 398.489 178.936C402.209 179.011 405.908 179.191 409.618 179.474C408.872 197.838 400.128 212.854 388.356 226.412C387.912 226.924 387.912 226.924 387.458 227.447C383.656 231.75 379.631 235.696 375.118 239.249C374.664 239.622 374.211 239.996 373.759 240.371C366.088 246.693 357.551 251.841 348.597 256.135C347.852 256.493 347.111 256.857 346.37 257.222C338.47 261.062 329.564 264.714 320.684 264.623C320.107 264.62 320.107 264.62 319.519 264.616C314.658 264.549 309.986 263.886 305.314 262.517C305.054 262.443 304.794 262.368 304.526 262.292C292.735 258.865 282.796 252.001 275.627 242.057C275.372 241.704 275.117 241.351 274.855 240.987C270.303 234.239 267.343 226.378 265.999 218.388C265.946 218.098 265.892 217.807 265.838 217.507C265.4 214.739 265.598 211.97 265.598 209.161C246.137 209.161 226.676 209.161 206.626 209.161C206.626 191.477 206.626 191.477 207.978 185.798C208.497 183.52 208.901 181.218 209.333 178.923C209.506 178.025 209.68 177.128 209.854 176.231C209.964 175.659 209.964 175.659 210.077 175.077C210.13 174.807 210.182 174.537 210.236 174.259Z" fill="#1A2F59"/>
<path d="M133.673 191.92C135.45 192.52 137.215 193.151 138.978 193.791C139.695 194.046 140.413 194.299 141.131 194.552C142.526 195.044 143.919 195.54 145.311 196.038C147.053 196.658 148.803 197.253 150.559 197.833C152.644 198.521 154.72 199.223 156.78 199.984C157.183 200.128 157.183 200.128 157.595 200.274C160.115 201.207 160.115 201.207 160.892 202.341C161.052 203.998 161.039 205.109 160.516 206.679C158.833 208.463 156.475 208.825 154.097 208.961C151.813 208.891 149.723 208.279 147.547 207.642C134.819 203.927 125.053 202.715 113.152 209.161C112.733 209.383 112.313 209.605 111.88 209.833C109.705 210.996 107.605 212.243 105.53 213.574C105.759 215.979 106.48 217.994 107.372 220.229C107.656 220.973 107.94 221.717 108.223 222.462C108.668 223.626 109.118 224.788 109.582 225.945C110.03 227.069 110.457 228.198 110.882 229.331C111.096 229.846 111.096 229.846 111.314 230.371C111.68 231.374 111.926 232.163 111.949 233.232C111.342 234.504 110.525 235.442 109.542 236.441C108.575 237.456 108.575 237.456 107.937 238.447C107.99 239.55 107.99 239.55 108.338 240.453C109.29 240.437 109.29 240.437 110.344 240.051C110.905 239.267 111.435 238.46 111.949 237.644C120.882 226.69 139.674 219.195 153.27 217.185C156.666 217.02 159.359 217.428 162.095 219.592C163.442 221.102 163.538 222.202 163.454 224.174C162.98 227.332 160.758 229.022 158.304 230.858C155.671 232.766 152.931 234.51 150.186 236.251C139.077 243.255 139.077 243.255 128.397 250.883C128.133 251.076 127.868 251.27 127.596 251.469C123.861 254.377 122.768 258.296 122.003 262.793C121.807 263.855 121.61 264.916 121.411 265.977C121.361 266.249 121.311 266.522 121.259 266.802C120.67 269.964 119.961 273.097 119.245 276.232C119.123 276.773 119 277.315 118.878 277.856C118.025 281.599 118.025 281.599 117.565 282.977C109.784 282.089 102.028 281.074 94.2896 279.865C90.4613 279.267 86.6307 278.684 82.8001 278.101C81.5867 277.916 80.3734 277.731 79.1601 277.546C75.1153 276.929 71.0699 276.322 67.0177 275.756C66.9662 265.698 67.0033 255.641 67.1234 245.584C67.1371 244.425 67.148 243.266 67.1566 242.107C67.169 240.46 67.1909 238.813 67.2136 237.166C67.2162 236.678 67.2187 236.19 67.2214 235.687C67.2945 231.412 68.0175 227.558 70.1017 223.804C70.2411 223.553 70.3805 223.301 70.524 223.042C72.5619 219.423 74.8903 216.044 77.5328 212.841C78.1024 212.149 78.6453 211.436 79.1782 210.716C83.1551 206.461 88.1705 204.732 93.5452 202.918C94.5882 202.562 95.6306 202.205 96.6731 201.848C96.9403 201.756 97.2075 201.665 97.4828 201.571C129.519 190.604 129.519 190.604 133.673 191.92Z" fill="#1A2F59"/>
<path d="M215.852 146.98C217.535 146.969 219.218 146.962 220.901 146.958C221.472 146.956 222.042 146.953 222.612 146.949C224.505 146.938 226.396 146.951 228.289 146.98C228.758 146.98 229.227 146.981 229.711 146.982C232.815 147.083 232.815 147.083 234.187 148.504C234.392 148.969 234.597 149.434 234.808 149.913C235.025 150.375 235.242 150.837 235.466 151.313C236.005 152.868 236.031 153.841 235.51 155.404C235.171 158.042 235.524 160.184 236.811 162.517C238.473 164.664 240.885 165.833 243.533 166.236C246.382 166.459 249.38 165.899 251.707 164.155C253.503 162.231 254.443 160.471 254.566 157.811C254.454 155.311 253.622 153.458 251.858 151.693C251.494 151.462 251.13 151.23 250.754 150.991C250.537 150.842 250.32 150.693 250.096 150.54C247.652 149.061 245.115 149.033 242.33 149.387C241.301 149.728 240.394 150.123 239.443 150.64C238.719 150.991 238.719 150.991 237.516 150.991C236.312 148.735 236.312 148.735 236.312 147.381C241.997 147.35 247.678 147.445 253.362 147.556C253.827 147.565 254.292 147.574 254.771 147.583C262.394 147.729 270.014 147.919 277.633 148.183C277.738 148.457 277.843 148.731 277.951 149.014C278.092 149.374 278.232 149.735 278.377 150.106C278.515 150.463 278.654 150.82 278.796 151.187C279.184 152.073 279.588 152.756 280.165 153.524C280.842 154.602 280.842 154.602 280.692 155.514C280.609 155.875 280.526 156.236 280.441 156.608C280.203 159.651 280.028 162.564 282.046 165.032C284.522 167.343 286.771 168.423 290.165 168.342C292.632 168.119 294.878 167.657 296.864 166.136C298.999 163.289 299.805 161.417 299.296 157.811C298.589 155.464 297.339 153.953 295.285 152.596C292.405 151.201 289.193 150.781 286.117 151.754C285.422 152.036 284.732 152.332 284.05 152.646C283.249 152.997 283.249 152.997 282.447 152.997C282.177 152.489 281.91 151.979 281.645 151.468C281.496 151.184 281.347 150.9 281.193 150.607C280.842 149.788 280.842 149.788 280.842 148.584C294.622 148.53 308.387 148.638 322.163 148.985C322.453 149.609 322.453 149.609 322.749 150.245C323.005 150.795 323.261 151.344 323.517 151.894C323.644 152.167 323.771 152.441 323.902 152.723C324.089 153.122 324.089 153.122 324.279 153.53C324.398 153.788 324.518 154.045 324.641 154.311C324.903 154.859 325.184 155.398 325.471 155.934C325.915 156.923 325.667 157.597 325.372 158.614C325.24 158.878 325.108 159.143 324.971 159.416C324.761 162.47 325.342 164.597 327.052 167.138C329.328 169.364 331.144 169.952 334.349 170.072C337.655 169.98 340.095 169.198 342.422 166.812C342.72 166.328 342.72 166.328 343.024 165.835C343.165 165.606 343.306 165.376 343.452 165.14C344.374 162.899 344.248 159.879 343.489 157.603C342.244 155.41 340.248 153.92 337.849 153.155C334.045 152.441 331.128 153.157 327.779 155.003C326.383 153.142 325.891 151.649 325.372 149.387C333.607 149.329 341.836 149.411 350.07 149.562C350.525 149.57 350.98 149.578 351.449 149.586C356.673 149.678 361.882 149.822 367.094 150.189C367.197 150.456 367.3 150.722 367.406 150.997C368.119 152.843 368.892 154.575 369.852 156.307C370.742 158.049 370.742 158.049 370.429 159.416C370.255 159.813 370.082 160.21 369.902 160.619C369.537 163.45 369.967 165.826 371.507 168.242C373.737 170.572 376.127 171.499 379.305 171.601C382.249 171.512 385.073 170.841 387.153 168.643C388.973 166.17 389.095 163.606 388.758 160.619C387.986 158.17 386.201 156.643 384.019 155.387C381.426 154.236 378.328 154.065 375.64 154.964C375.022 155.243 374.411 155.539 373.811 155.855C373.112 156.207 373.112 156.207 372.31 156.207C372.056 155.732 371.806 155.255 371.557 154.777C371.418 154.512 371.278 154.247 371.134 153.973C370.6 152.759 370.267 151.465 369.902 150.189C384.333 150.189 398.763 150.189 413.63 150.189C413.034 155.153 413.034 155.153 412.427 160.218C412.108 163.015 412.108 163.015 411.79 165.811C411.758 166.087 411.727 166.364 411.694 166.648C411.63 167.222 411.565 167.796 411.502 168.37C411.407 169.231 411.308 170.092 411.209 170.953C411.126 171.692 411.126 171.692 411.041 172.446C410.815 173.902 410.435 175.255 410.02 176.666C401.699 176.723 393.391 176.568 385.073 176.369C383.636 176.334 382.198 176.301 380.761 176.267C377.35 176.188 373.939 176.107 370.528 176.025C367.454 175.951 364.379 175.879 361.305 175.808C331.952 175.13 331.952 175.13 319.242 174.591C309.826 174.192 300.406 173.984 290.984 173.776C285.613 173.657 280.243 173.531 274.872 173.402C274.595 173.395 274.319 173.389 274.034 173.382C260.355 173.053 246.679 172.625 233.003 172.178C232.723 172.169 232.444 172.16 232.156 172.151C225.117 171.921 218.078 171.688 211.038 171.451C211.099 170.811 211.161 170.172 211.223 169.532C211.257 169.176 211.291 168.819 211.327 168.452C211.465 167.21 211.708 166.013 211.99 164.796C212.454 162.715 212.877 160.634 213.259 158.537C213.309 158.261 213.36 157.985 213.412 157.701C213.619 156.572 213.824 155.443 214.027 154.313C214.179 153.472 214.333 152.632 214.488 151.792C214.577 151.3 214.666 150.809 214.757 150.302C215.02 149.12 215.364 148.085 215.852 146.98Z" fill="#1A2F59"/>
<path d="M421.252 178.271C421.385 178.271 421.517 178.271 421.654 178.271C421.681 191.128 421.608 203.984 421.511 216.841C421.487 220.007 421.464 223.172 421.441 226.337C421.433 227.545 421.424 228.753 421.415 229.961C421.413 230.263 421.411 230.566 421.409 230.878C421.393 233.054 421.377 235.23 421.361 237.406C421.257 251.756 421.155 266.106 421.057 280.455C421.054 280.786 421.052 281.117 421.05 281.458C420.853 310.272 420.712 339.086 420.601 367.9C420.598 368.693 420.598 368.693 420.594 369.502C420.543 382.65 420.495 395.797 420.45 408.945C419.382 408.421 418.433 407.883 417.482 407.166C417.226 406.974 416.971 406.782 416.707 406.584C416.437 406.379 416.166 406.173 415.887 405.961C415.604 405.748 415.321 405.534 415.03 405.314C413.163 403.9 411.31 402.468 409.468 401.022C409.238 400.842 409.007 400.661 408.77 400.476C407.715 399.646 406.683 398.806 405.668 397.927C403.675 396.101 403.675 396.101 401.144 395.506C400.763 395.572 400.383 395.638 399.99 395.706C399.88 395.944 399.769 396.183 399.656 396.428C399.211 397.267 398.753 397.889 398.127 398.597C397.819 398.951 397.819 398.951 397.504 399.311C397.183 399.674 397.183 399.674 396.856 400.044C395.581 401.489 394.357 402.92 393.266 404.512C392.97 404.915 392.673 405.319 392.368 405.735C392.103 405.735 391.839 405.735 391.566 405.735C391.795 402.416 392.206 399.164 392.744 395.882C393.23 392.827 393.682 389.784 393.973 386.705C394.305 383.184 394.824 379.698 395.378 376.206C395.792 373.535 396.105 370.869 396.361 368.18C396.715 364.482 397.199 360.813 397.733 357.137C398.714 350.362 399.605 343.578 400.442 336.784C401.142 331.1 401.866 325.422 402.669 319.751C403.078 316.833 403.43 313.913 403.751 310.984C404.308 305.931 405.039 300.906 405.769 295.876C406.425 291.352 407.049 286.831 407.567 282.289C408.027 278.318 408.591 274.362 409.149 270.404C409.76 266.069 410.334 261.733 410.827 257.383C411.051 255.422 411.314 253.475 411.623 251.526C412.027 248.953 412.311 246.377 412.577 243.787C412.969 240.109 413.446 236.458 414.031 232.805C414.728 228.457 415.272 224.104 415.752 219.726C416.304 214.726 416.969 209.742 417.68 204.762C417.757 204.212 417.835 203.662 417.913 203.112C418.238 200.815 418.564 198.519 418.891 196.222C420.173 187.26 420.173 187.26 421.252 178.271Z" fill="#1A2F59"/>
<path d="M312.936 323.094C326.3 322.976 339.644 323.166 353.003 323.495C353.392 323.505 353.782 323.514 354.183 323.524C359.021 323.644 363.86 323.768 368.699 323.896C368.636 324.333 368.574 324.769 368.509 325.219C368.314 326.593 368.129 327.967 367.95 329.344C366.699 338.876 366.699 338.876 365.922 343.576C365.431 346.597 365.071 349.633 364.723 352.673C364.678 353.058 364.632 353.442 364.585 353.839C364.547 354.177 364.508 354.515 364.469 354.863C364.23 356.336 363.851 357.753 363.484 359.199C352.946 359.253 342.423 359.125 331.888 358.851C330.434 358.814 328.98 358.779 327.526 358.744C326.096 358.709 324.667 358.674 323.237 358.638C322.57 358.621 321.902 358.604 321.235 358.588C316.989 358.484 312.759 358.292 308.523 357.996C308.77 353.86 309.21 349.775 309.746 345.668C309.876 344.664 310.004 343.66 310.131 342.656C310.582 339.138 311.097 335.64 311.7 332.144C312.212 329.14 312.586 326.121 312.936 323.094Z" fill="#1A2F59"/>
<path d="M257.976 322.292C262.823 322.279 267.671 322.271 272.518 322.267C272.877 322.266 273.235 322.266 273.605 322.266C285.918 322.255 298.22 322.372 310.529 322.693C310.11 327.096 309.665 331.482 309 335.856C308.493 339.278 308.019 342.701 307.586 346.133C307.541 346.49 307.496 346.848 307.449 347.216C307.225 348.999 307.003 350.783 306.783 352.567C306.701 353.22 306.62 353.874 306.538 354.528C306.501 354.833 306.464 355.137 306.426 355.451C306.162 357.549 306.162 357.549 305.715 357.996C305.029 358.024 304.342 358.023 303.655 358.011C303.21 358.004 302.766 357.997 302.308 357.991C301.818 357.981 301.329 357.971 300.824 357.961C300.316 357.953 299.807 357.945 299.283 357.936C297.896 357.913 296.509 357.888 295.121 357.862C293.97 357.84 292.818 357.82 291.667 357.8C288.755 357.75 285.844 357.697 282.932 357.642C281.114 357.607 279.297 357.574 277.479 357.541C275.289 357.502 273.1 357.46 270.911 357.418C270.123 357.402 269.336 357.387 268.548 357.373C263.546 357.278 258.557 357.087 253.563 356.792C254.075 351.357 254.69 345.941 255.388 340.527C255.543 339.316 255.697 338.105 255.85 336.894C256.472 332.012 257.176 327.149 257.976 322.292Z" fill="#1A2F59"/>
<path d="M203.416 321.088C220.804 320.986 238.191 321.323 255.568 321.891C254.584 331.215 253.366 340.512 252.104 349.802C252.011 350.485 251.918 351.169 251.826 351.853C251.603 353.499 251.379 355.146 251.156 356.792C246.903 356.748 242.65 356.703 238.397 356.656C236.421 356.635 234.444 356.613 232.467 356.593C221.31 356.478 210.157 356.278 199.003 355.99C199.129 354.715 199.255 353.44 199.381 352.165C199.416 351.808 199.451 351.45 199.488 351.082C199.783 348.111 200.149 345.157 200.558 342.2C200.697 341.172 200.837 340.145 200.976 339.117C201.083 338.337 201.083 338.337 201.191 337.541C201.417 335.889 201.637 334.236 201.857 332.583C201.893 332.309 201.93 332.036 201.967 331.754C202.039 331.212 202.111 330.671 202.183 330.129C202.349 328.879 202.515 327.63 202.681 326.38C202.736 325.967 202.791 325.554 202.848 325.129C203.031 323.781 203.222 322.435 203.416 321.088Z" fill="#1A2F59"/>
<path d="M307.721 360.804C311.607 360.779 315.493 360.763 319.38 360.754C319.675 360.753 319.97 360.753 320.273 360.752C330.362 360.731 340.437 360.901 350.521 361.205C350.997 361.22 350.997 361.22 351.483 361.234C355.35 361.352 359.216 361.476 363.083 361.607C362.904 365.387 362.677 369.088 361.979 372.814C361.135 377.582 360.429 382.365 359.738 387.157C359.676 387.586 359.676 387.586 359.613 388.023C359.499 388.805 359.387 389.586 359.275 390.367C359.103 391.487 358.896 392.59 358.67 393.7C355.076 393.713 351.482 393.721 347.888 393.725C347.613 393.726 347.339 393.726 347.056 393.726C337.027 393.737 327.001 393.644 316.973 393.5C316.639 393.495 316.306 393.49 315.963 393.485C311.878 393.426 307.794 393.364 303.709 393.299C304.081 389.433 304.498 385.585 305.096 381.747C305.769 377.419 306.288 373.077 306.793 368.727C306.884 367.952 306.975 367.177 307.067 366.402C307.286 364.536 307.504 362.67 307.721 360.804Z" fill="#1A2F59"/>
<path d="M317.75 289.797C327.24 289.74 336.727 289.815 346.216 289.96C347.045 289.972 347.875 289.984 348.704 289.996C352.152 290.047 355.6 290.107 359.048 290.18C359.612 290.192 360.177 290.204 360.742 290.216C362.496 290.252 364.251 290.293 366.005 290.341C366.559 290.355 367.114 290.368 367.668 290.38C368.432 290.397 369.197 290.419 369.961 290.441C370.396 290.452 370.832 290.463 371.28 290.475C372.31 290.599 372.31 290.599 373.112 291.401C373.255 293.604 372.954 295.73 372.642 297.905C372.568 298.433 372.568 298.433 372.493 298.972C372.333 300.11 372.171 301.247 372.009 302.384C371.899 303.163 371.789 303.943 371.679 304.722C370.885 310.322 370.028 315.91 369.1 321.489C360.713 321.516 352.329 321.451 343.942 321.327C343.01 321.314 342.078 321.3 341.146 321.287C331.874 321.154 322.605 320.985 313.337 320.687C313.458 319.551 313.581 318.416 313.704 317.28C313.738 316.963 313.771 316.646 313.806 316.319C314.03 314.265 314.328 312.241 314.691 310.206C315.408 306.133 315.885 302.029 316.368 297.923C316.695 295.173 317.081 292.487 317.75 289.797Z" fill="#1A2F59"/>
<path d="M253.161 359.601C265.765 359.483 278.348 359.672 290.947 360.002C291.313 360.011 291.679 360.021 292.057 360.031C296.61 360.151 301.162 360.275 305.715 360.403C305.682 360.656 305.648 360.908 305.614 361.169C305.019 365.691 304.43 370.213 303.91 374.745C303.518 378.097 303.052 381.428 302.501 384.757C302.168 386.794 301.925 388.819 301.788 390.88C301.703 391.694 301.703 391.694 301.302 392.898C288.304 392.999 275.331 392.886 262.338 392.497C262.018 392.487 261.697 392.478 261.367 392.468C257.428 392.349 253.489 392.225 249.551 392.096C249.519 389.373 249.546 386.713 249.86 384.008C249.892 383.724 249.924 383.439 249.958 383.146C250.062 382.243 250.17 381.34 250.278 380.437C250.352 379.808 250.425 379.179 250.499 378.55C250.941 374.812 251.436 371.09 252.074 367.38C252.513 364.799 252.824 362.196 253.161 359.601Z" fill="#1A2F59"/>
<path d="M198.602 358.397C209.173 358.314 219.735 358.542 230.303 358.769C232.617 358.818 234.93 358.866 237.244 358.914C241.747 359.008 246.251 359.103 250.754 359.199C250.716 359.511 250.678 359.823 250.638 360.144C250.272 363.111 249.906 366.078 249.541 369.046C249.353 370.571 249.165 372.095 248.977 373.62C247.835 382.855 247.835 382.855 246.743 392.096C234.927 392.227 223.126 391.998 211.314 391.694C210.941 391.685 210.568 391.675 210.184 391.665C205.521 391.545 200.858 391.421 196.195 391.293C196.161 387.789 196.198 384.338 196.518 380.846C196.552 380.455 196.585 380.064 196.62 379.661C196.727 378.431 196.837 377.202 196.947 375.973C197.018 375.16 197.089 374.347 197.159 373.534C197.599 368.484 198.085 363.44 198.602 358.397Z" fill="#1A2F59"/>
<path d="M262.79 288.994C273.523 288.918 284.246 289.13 294.976 289.366C297.236 289.416 299.496 289.464 301.756 289.512C306.151 289.605 310.547 289.7 314.942 289.797C314.736 293.258 314.485 296.688 314.017 300.125C313.942 300.691 313.942 300.691 313.866 301.268C313.761 302.055 313.655 302.842 313.548 303.629C313.388 304.812 313.232 305.996 313.076 307.18C312.489 311.578 311.808 315.936 310.93 320.286C298.251 320.4 285.593 320.221 272.919 319.885C272.558 319.875 272.197 319.865 271.825 319.856C267.342 319.736 262.859 319.612 258.377 319.483C258.839 315.496 259.315 311.512 259.843 307.533C259.903 307.086 259.962 306.64 260.023 306.179C260.147 305.25 260.271 304.32 260.395 303.391C260.521 302.445 260.647 301.499 260.771 300.553C260.953 299.168 261.138 297.784 261.323 296.4C261.378 295.98 261.432 295.56 261.489 295.126C261.775 293.014 262.136 291.024 262.79 288.994Z" fill="#1A2F59"/>
<path d="M214.356 288.046C214.74 288.046 215.124 288.045 215.519 288.045C216.809 288.046 218.098 288.056 219.388 288.067C220.296 288.07 221.204 288.074 222.113 288.077C234.739 288.148 247.363 288.586 259.981 288.994C260.001 290.733 260.018 292.389 259.715 294.105C259.655 294.459 259.595 294.813 259.533 295.177C259.466 295.561 259.399 295.945 259.329 296.341C258.484 301.376 257.772 306.428 257.073 311.485C257.018 311.88 256.963 312.275 256.907 312.682C256.593 314.949 256.281 317.216 255.97 319.483C249.932 319.512 243.899 319.421 237.862 319.308C236.875 319.29 235.887 319.272 234.9 319.254C232.327 319.207 229.754 319.159 227.182 319.112C224.546 319.063 221.91 319.015 219.274 318.966C214.122 318.872 208.97 318.777 203.817 318.681C206.64 301.638 206.64 301.638 207.518 296.874C207.629 296.261 207.738 295.648 207.844 295.035C208.005 294.106 208.175 293.179 208.346 292.252C208.392 291.979 208.437 291.706 208.484 291.425C208.698 290.318 208.94 289.512 209.645 288.624C211.196 287.948 212.682 288.029 214.356 288.046Z" fill="#1A2F59"/>
<path d="M153.671 86.4026C160.747 90.4692 164.47 101.22 167.304 108.476C167.491 108.95 167.491 108.95 167.681 109.433C167.914 110.029 168.14 110.628 168.361 111.229C168.922 112.705 168.922 112.705 170.037 113.77C171.446 113.63 172.405 112.829 173.504 112.002C173.749 111.823 173.995 111.643 174.248 111.457C176.691 109.628 178.901 107.572 181.102 105.462C181.824 104.791 182.569 104.151 183.318 103.51C185.011 102.039 186.531 100.44 188.046 98.7888C188.798 97.9751 189.551 97.1621 190.307 96.3519C190.729 95.8989 191.148 95.443 191.562 94.9832C192.083 94.4245 192.083 94.4245 192.986 93.6237C194.315 93.6989 194.315 93.6989 195.393 94.0249C195.226 96.9744 194.612 99.5596 193.663 102.349C193.406 103.13 193.149 103.911 192.893 104.692C192.77 105.066 192.647 105.44 192.52 105.825C191.952 107.577 191.456 109.348 190.959 111.122C189.324 116.951 187.535 122.736 185.765 128.526C185.096 128.543 184.427 128.542 183.759 128.526C183.626 128.393 183.494 128.261 183.358 128.124C183.394 125.684 184.012 123.478 184.837 121.204C186.124 117.5 187.206 113.752 188.261 109.976C188.59 108.808 188.924 107.641 189.259 106.475C189.427 105.893 189.427 105.893 189.598 105.298C189.814 104.547 190.03 103.797 190.246 103.046C190.343 102.711 190.439 102.375 190.538 102.03C190.623 101.732 190.709 101.435 190.797 101.129C190.997 100.497 190.997 100.497 190.98 100.042C190.79 100.234 190.6 100.426 190.405 100.624C189.528 101.509 188.649 102.393 187.77 103.277C187.472 103.579 187.174 103.88 186.866 104.191C184.962 106.104 183.006 107.921 180.951 109.671C180.721 109.868 180.492 110.066 180.256 110.27C173.121 116.421 173.121 116.421 169.37 116.7C168.013 116.367 167.289 115.589 166.508 114.485C165.784 113.051 165.209 111.568 164.628 110.072C164.277 109.203 163.925 108.336 163.572 107.469C163.394 107.032 163.216 106.595 163.032 106.145C159.335 97.1237 159.335 97.1237 153.27 89.612C152.872 89.4796 152.475 89.3472 152.066 89.2108C152.071 89.5278 152.075 89.8448 152.08 90.1714C152.093 91.7237 152.085 93.2751 152.066 94.8272C152.063 95.2332 152.063 95.2332 152.059 95.6474C151.916 105.681 150.744 122.995 143.642 130.933C140.038 133.052 136.318 132.035 132.459 131.183C123.299 129.289 114.448 129.23 105.129 129.328C105.545 129.449 105.961 129.57 106.389 129.695C110.452 130.883 114.504 132.1 118.543 133.365C118.837 133.457 119.131 133.549 119.434 133.644C124.19 135.137 128.91 136.723 133.612 138.379C133.909 138.484 134.206 138.588 134.512 138.695C135.349 138.989 136.186 139.286 137.022 139.585C137.498 139.754 137.974 139.923 138.464 140.098C139.63 140.561 139.63 140.561 140.833 141.363C140.701 141.893 140.569 142.422 140.432 142.968C139.141 143.394 138.411 143.344 137.133 142.9C136.802 142.788 136.471 142.675 136.129 142.559C135.595 142.37 135.595 142.37 135.049 142.176C134.676 142.048 134.303 141.92 133.918 141.787C132.72 141.374 131.524 140.955 130.328 140.536C129.542 140.264 128.757 139.993 127.972 139.722C125.065 138.717 122.16 137.708 119.266 136.665C115.922 135.462 112.587 134.398 109.141 133.515C108.246 133.28 107.352 133.044 106.458 132.807C106.029 132.694 105.601 132.581 105.159 132.465C103.405 131.998 101.658 131.511 99.9138 131.008C99.6356 130.93 99.3574 130.852 99.0707 130.771C97.8932 130.427 97.1853 130.21 96.3033 129.328C96.3534 128.325 96.3534 128.325 96.7044 127.322C100.117 125.073 106.09 126.007 110.068 125.993C110.37 125.992 110.671 125.991 110.981 125.99C119.136 125.987 127.511 126.686 135.393 128.874C137.391 129.403 139.245 129.505 141.235 128.927C142.939 127.475 143.538 125.355 144.243 123.285C144.365 122.932 144.486 122.578 144.611 122.214C146.679 115.98 147.528 109.49 148.336 102.993C148.442 102.153 148.56 101.315 148.68 100.477C148.99 97.9947 148.984 95.4801 149.029 92.982C149.103 90.6371 149.312 88.8683 150.461 86.8038C151.611 86.2289 152.392 86.2797 153.671 86.4026Z" fill="white"/>
<path d="M251.677 125.473C254.539 127.179 256.135 129.828 257.173 132.939C257.537 134.457 257.621 135.862 257.614 137.422C257.612 137.886 257.611 138.35 257.61 138.828C257.605 139.549 257.605 139.549 257.599 140.285C257.598 140.773 257.596 141.262 257.594 141.765C257.589 142.968 257.583 144.172 257.574 145.375C250.072 145.434 242.604 145.282 235.109 144.974C234.303 142.622 234.159 140.48 234.156 138.003C234.146 137.644 234.136 137.286 234.126 136.916C234.11 133.181 235.499 129.781 238.143 127.084C242.194 123.394 246.8 123.203 251.677 125.473Z" fill="#1A2F59"/>
<path d="M295.234 126.57C299.065 128.868 301.271 131.19 302.664 135.488C303.125 137.504 303.03 139.532 302.982 141.589C302.974 142.253 302.974 142.253 302.966 142.931C302.951 144.013 302.932 145.095 302.907 146.177C286.363 146.26 286.363 146.26 279.639 145.776C278.535 141.849 278.618 136.386 280.288 132.667C283.443 127.364 289.036 124.215 295.234 126.57Z" fill="#1A2F59"/>
<path d="M343.876 130.506C346.177 132.63 347.489 135.553 348.239 138.555C348.239 141.335 348.239 144.115 348.239 146.98C340.428 146.98 332.618 146.98 324.57 146.98C323.377 142.207 324.124 137.56 326.4 133.264C328.098 130.596 330.55 128.74 333.621 127.924C337.319 127.332 340.928 128.207 343.876 130.506Z" fill="#1A2F59"/>
<path d="M385.891 130.859C389.292 132.736 391.162 135.792 392.318 139.433C392.753 141.273 392.824 143.037 392.797 144.919C392.795 145.195 392.793 145.472 392.791 145.757C392.786 146.432 392.778 147.107 392.769 147.782C389.742 147.791 386.716 147.798 383.689 147.803C382.283 147.805 380.878 147.808 379.473 147.812C377.859 147.817 376.244 147.819 374.63 147.821C374.123 147.823 373.617 147.825 373.094 147.827C372.629 147.827 372.163 147.827 371.683 147.827C371.064 147.829 371.064 147.829 370.433 147.83C369.501 147.782 369.501 147.782 369.1 147.381C368.7 143.333 368.55 138.91 370.705 135.346C370.845 135.09 370.986 134.834 371.131 134.57C374.315 129.429 380.638 128.406 385.891 130.859Z" fill="#1A2F59"/>
<path d="M249.952 191.108C256.483 191.061 263.006 191.102 269.534 191.284C269.829 191.292 270.124 191.3 270.428 191.308C270.717 191.316 271.006 191.324 271.304 191.332C271.68 191.342 271.68 191.342 272.064 191.352C274.487 191.429 276.902 191.534 279.321 191.696C284.245 192 289.177 192.109 294.107 192.249C295.527 192.29 296.946 192.331 298.365 192.373C302.577 192.497 306.79 192.619 311.002 192.74C336.218 193.465 336.218 193.465 346.196 193.87C346.985 193.902 347.773 193.932 348.561 193.962C349.624 194.002 350.688 194.047 351.751 194.093C352.207 194.109 352.207 194.109 352.672 194.126C354.398 194.208 355.856 194.495 357.466 195.12C357.334 195.782 357.201 196.444 357.065 197.126C346.854 196.922 336.644 196.675 326.435 196.398C325.232 196.366 324.028 196.334 322.825 196.303C316.299 196.135 309.784 195.9 303.266 195.534C294.435 195.039 285.599 194.787 276.759 194.531C273.339 194.431 269.919 194.33 266.5 194.227C265.326 194.192 264.153 194.158 262.98 194.125C250.601 193.763 250.601 193.763 249.952 193.114C249.936 192.446 249.935 191.777 249.952 191.108Z" fill="white"/>
<path d="M290.872 215.981C298.8 216.247 306.717 216.659 314.636 217.107C315.872 217.177 317.107 217.245 318.343 217.314C321.38 217.483 324.417 217.655 327.454 217.83C329.006 217.919 330.557 218.008 332.109 218.095C333.674 218.183 335.239 218.273 336.805 218.364C337.394 218.398 337.984 218.431 338.574 218.464C339.384 218.509 340.194 218.556 341.004 218.604C341.693 218.643 341.693 218.643 342.396 218.683C343.425 218.789 343.425 218.789 343.826 219.19C343.876 220.193 343.876 220.193 343.826 221.196C343.425 221.598 343.425 221.598 342.73 221.619C342.423 221.605 342.116 221.591 341.799 221.577C341.442 221.562 341.086 221.547 340.718 221.531C340.319 221.512 339.92 221.492 339.509 221.472C339.086 221.453 338.664 221.434 338.228 221.414C332.475 221.146 326.723 220.824 320.972 220.503C319.34 220.411 317.707 220.321 316.074 220.232C314.796 220.161 313.518 220.09 312.241 220.019C311.638 219.985 311.036 219.952 310.434 219.919C307.42 219.753 304.413 219.562 301.408 219.273C300.299 219.172 299.192 219.122 298.079 219.092C297.68 219.079 297.282 219.065 296.871 219.052C296.05 219.027 295.229 219.004 294.408 218.983C294.014 218.969 293.62 218.955 293.214 218.941C292.86 218.931 292.506 218.921 292.141 218.911C291.273 218.789 291.273 218.789 290.47 217.987C290.621 216.934 290.621 216.934 290.872 215.981Z" fill="white"/>
<path d="M339.012 156.056C340.545 157.27 341.642 158.287 341.958 160.289C342.039 162.287 341.757 163.743 340.617 165.433C338.405 167.529 336.292 168.053 333.311 167.992C330.956 167.673 329.52 166.439 327.98 164.706C327.191 163.031 327.197 162.058 327.378 160.218C327.643 159.821 327.908 159.424 328.181 159.015C328.381 159.155 328.581 159.295 328.787 159.439C331.464 161.136 333.876 161.369 337.006 161.422C337.006 160.76 337.006 160.098 337.006 159.416C336.224 159.478 336.224 159.478 335.427 159.541C333.164 159.559 331.632 158.632 329.785 157.41C329.785 157.145 329.785 156.88 329.785 156.608C332.567 155.09 336.09 154.551 339.012 156.056Z" fill="#1A2F59"/>
<path d="M294.59 154.917C295.778 155.75 296.3 156.485 296.889 157.811C297.156 159.692 297.03 161.327 296.513 163.152C295.105 164.986 293.343 166.011 291.06 166.416C288.687 166.522 286.783 166.033 284.854 164.631C283.272 163.123 282.475 161.815 282.397 159.591C282.447 158.212 282.447 158.212 282.848 157.41C283.94 157.827 284.91 158.247 285.907 158.864C287.83 159.648 289.624 159.514 291.674 159.416C291.674 158.886 291.674 158.357 291.674 157.811C291.188 157.759 291.188 157.759 290.691 157.706C286.754 157.188 286.754 157.188 285.556 155.956C285.209 155.484 285.209 155.484 284.854 155.003C288.088 152.937 291.231 153.032 294.59 154.917Z" fill="#1A2F59"/>
<path d="M384.345 158.212C385.721 159.379 386.249 159.978 386.531 161.762C386.599 163.658 386.5 165.084 385.749 166.838C383.841 168.745 382.035 169.532 379.33 169.671C377.091 169.587 375.6 168.889 373.914 167.439C372.579 165.975 372.256 164.705 372.284 162.751C372.288 162.426 372.292 162.102 372.295 161.768C372.3 161.521 372.305 161.275 372.31 161.021C372.574 160.888 372.839 160.756 373.112 160.619C373.825 161.005 373.825 161.005 374.691 161.572C376.792 162.807 378.733 162.977 381.135 163.026C381.268 162.497 381.4 161.967 381.536 161.422C381.212 161.358 380.888 161.295 380.554 161.229C376.296 160.299 376.296 160.299 374.717 158.212C377.859 156.205 381.145 156.103 384.345 158.212Z" fill="#1A2F59"/>
<path d="M248.141 152.071C249.993 152.903 251.105 153.922 251.958 155.805C252.312 158.075 252.058 159.89 250.754 161.823C249.166 163.368 247.629 164.211 245.381 164.244C242.463 164.065 240.946 163.136 238.769 161.196C237.414 159.521 237.754 157.439 237.917 155.404C239 155.823 239.975 156.238 240.976 156.833C242.863 157.637 244.71 157.706 246.743 157.811C246.875 157.149 247.007 156.487 247.144 155.805C246.681 155.838 246.217 155.872 245.74 155.906C243.815 155.909 242.295 155.302 240.725 154.201C240.46 153.803 240.196 153.406 239.923 152.997C242.385 151.275 245.281 151.275 248.141 152.071Z" fill="#1A2F59"/>
<path d="M247.545 327.908C247.744 328.901 247.744 328.901 247.946 329.914C247.544 330.075 247.544 330.075 247.133 330.24C241.419 332.572 236.031 334.976 231.097 338.74C230.536 339.166 230.536 339.166 229.964 339.602C228.358 340.871 226.834 342.176 225.41 343.648C225.196 343.869 224.982 344.09 224.761 344.318C224.347 344.752 223.937 345.192 223.533 345.636C222.121 347.129 222.121 347.129 220.898 347.3C219.635 347.134 219.201 346.782 218.278 345.918C217.856 345.525 217.856 345.525 217.426 345.123C217.138 344.845 216.851 344.567 216.555 344.281C216.261 344.011 215.967 343.741 215.664 343.462C213.308 341.225 213.308 341.225 213.044 339.141C213.721 338.834 213.721 338.834 214.649 338.74C215.627 339.448 215.627 339.448 216.655 340.445C218.063 341.803 218.063 341.803 219.588 343.021C219.812 343.197 220.035 343.373 220.265 343.554C220.265 343.819 220.265 344.083 220.265 344.356C221.686 343.126 223.104 341.897 224.473 340.609C229.767 335.645 239.825 327.095 247.545 327.908Z" fill="white"/>
<path d="M109.943 89.2108C111.717 89.4397 113.137 89.8896 114.754 90.6478C115.202 90.8565 115.651 91.0651 116.113 91.2801C116.576 91.4991 117.038 91.7181 117.515 91.9438C117.975 92.1581 118.435 92.3725 118.908 92.5933C121.286 93.7057 123.649 94.8429 125.99 96.0307C125.84 97.0086 125.84 97.0086 125.589 98.0366C125.192 98.2352 125.192 98.2352 124.786 98.4378C123.864 98.1228 123.864 98.1228 122.712 97.6103C122.29 97.4241 121.868 97.2378 121.434 97.0459C120.76 96.742 120.76 96.742 120.073 96.4319C119.62 96.2301 119.167 96.0282 118.7 95.8203C115.468 94.3708 112.278 92.861 109.141 91.2167C109.406 90.5547 109.67 89.8928 109.943 89.2108Z" fill="white"/>
<path d="M142.438 209.161C142.438 209.294 142.438 209.426 142.438 209.562C134.627 209.562 126.816 209.562 118.769 209.562C125.769 204.896 134.932 207.46 142.438 209.161Z" fill="#1A2F59"/>
<path d="M168.514 65.5417C169.706 65.7402 169.706 65.7402 170.921 65.9428C170.335 69.9152 169.223 73.7266 168.113 77.5768C166.609 78.0281 166.609 78.0281 165.706 77.5768C165.895 73.6648 166.747 69.0761 168.514 65.5417Z" fill="white"/>
<path d="M289.267 157.41C290.061 157.41 290.856 157.41 291.674 157.41C291.827 158.074 291.96 158.744 292.075 159.416C291.674 159.817 291.674 159.817 290.669 159.856C290.062 159.849 290.062 159.849 289.442 159.842C289.036 159.839 288.631 159.835 288.212 159.831C287.898 159.827 287.584 159.822 287.261 159.817C287.791 159.685 288.32 159.552 288.866 159.416C288.998 158.754 289.131 158.092 289.267 157.41Z" fill="white"/>
<path d="M122.781 208.76C123.045 209.025 123.31 209.29 123.583 209.562C121.994 209.562 120.406 209.562 118.769 209.562C120.262 208.567 121.084 208.158 122.781 208.76Z" fill="#1A2F59"/>
<path d="M292.301 215.956C292.756 215.964 293.211 215.973 293.68 215.981C293.44 216.155 293.2 216.329 292.953 216.508C292.192 217.094 291.532 217.694 290.872 218.388C290.718 217.724 290.585 217.054 290.47 216.382C290.872 215.981 290.872 215.981 292.301 215.956Z" fill="white"/>
</svg>
