<svg width="1492" height="399" viewBox="0 0 1492 399" fill="none" xmlns="http://www.w3.org/2000/svg">
<path d="M1371.47 298.726H1319.37L1442.34 56.3076H1491.85L1371.47 298.726Z" fill="white"/>
<path d="M1110.33 152.919H1110.37C1110.42 163.077 1112.88 172.396 1117.75 180.875C1122.67 189.222 1129.2 195.965 1137.33 201.102C1145.68 206.238 1154.89 208.807 1164.95 208.807C1175.22 208.807 1184.42 206.238 1192.56 201.102C1200.9 195.965 1207.54 189.222 1212.46 180.875C1217.38 172.314 1219.85 162.897 1219.85 152.623C1219.85 142.349 1217.38 133.039 1212.46 124.691C1207.54 116.13 1200.9 109.281 1192.56 104.145C1184.42 99.0078 1175.33 96.4385 1165.27 96.4385C1154.99 96.4385 1145.68 99.0077 1137.33 104.145C1135.35 105.398 1133.46 106.755 1131.67 108.213V60.7842C1134.53 59.3648 1137.49 58.0857 1140.55 56.9492C1149.96 53.5247 1160.13 51.8125 1171.05 51.8125C1189.02 51.8125 1205.29 56.4148 1219.85 65.6182C1234.4 74.6075 1245.96 86.7003 1254.52 101.896C1263.29 117.093 1267.68 134.002 1267.68 152.623C1267.68 171.03 1263.29 187.938 1254.52 203.349C1245.96 218.545 1234.4 230.745 1219.85 239.948C1205.29 248.938 1189.02 253.433 1171.05 253.433C1158.63 253.433 1147.07 251.185 1136.37 246.69C1125.88 242.196 1116.79 236.096 1109.08 228.391V248.938H1065.1V0H1110.33V152.919Z" fill="white"/>
<path d="M225.798 51.5654C238.426 51.5655 250.09 53.813 260.792 58.3076C271.494 62.8023 280.59 69.1168 288.081 77.25V56.0605H332.065V248.691H288.081V227.502C288.073 227.51 288.065 227.519 288.057 227.527V149.363C288.057 147.443 287.745 145.37 287.24 143.27C283.695 122.516 268.912 105.597 249.375 98.998C247.208 98.2433 244.985 97.6415 242.704 97.1914C238.975 96.4227 235.113 96.0186 231.156 96.0186C199.731 96.0187 174.257 121.494 174.257 152.919C174.257 184.344 199.731 209.819 231.156 209.819C244.613 209.819 256.978 205.147 266.72 197.337V245.382L266.719 243.585C264.801 244.596 262.826 245.549 260.792 246.443C250.09 250.938 238.426 253.186 225.798 253.186C208.247 253.186 192.194 248.691 177.64 239.701C163.086 230.498 151.421 218.298 142.646 203.102C134.084 187.691 129.804 170.783 129.804 152.376C129.804 133.969 134.084 117.167 142.646 101.971C151.421 86.5604 163.085 74.3605 177.64 65.3711C192.194 56.1676 208.247 51.5654 225.798 51.5654Z" fill="white"/>
<path d="M567.198 51.5654C579.826 51.5654 591.491 53.813 602.192 58.3076C612.894 62.8023 621.991 69.1167 629.482 77.25V56.0605H673.466V248.691H629.482V227.502C629.474 227.51 629.466 227.519 629.458 227.527V149.362H629.348C627.899 125.872 612.198 106.239 590.786 99.002C588.615 98.245 586.386 97.6414 584.1 97.1904C580.372 96.4225 576.512 96.0186 572.558 96.0186C541.133 96.0186 515.657 121.494 515.657 152.919C515.657 184.344 541.133 209.819 572.558 209.819C586.014 209.819 598.379 205.147 608.12 197.338V243.584C606.202 244.595 604.226 245.548 602.192 246.443C591.491 250.938 579.826 253.186 567.198 253.186C549.648 253.186 533.595 248.691 519.041 239.701C504.487 230.498 492.821 218.298 484.046 203.102C475.485 187.691 471.204 170.783 471.204 152.376C471.204 133.969 475.485 117.167 484.046 101.971C492.821 86.5603 504.487 74.3605 519.041 65.3711C533.595 56.1677 549.648 51.5654 567.198 51.5654Z" fill="white"/>
<path d="M49.7871 202.707H118.245V248.938H0V99.5752H49.7871V202.707Z" fill="white"/>
<path d="M431.27 248.938H380.864V0H431.27V248.938Z" fill="white"/>
<path d="M945.553 50.5283C959.465 50.5283 972.414 53.7391 984.4 60.1602C996.386 66.5812 1006.12 75.892 1013.62 88.0918C1021.11 100.292 1024.85 114.953 1024.85 132.075V248.938H974.126V139.139C974.126 126.939 970.594 116.772 963.531 108.639C956.682 100.506 947.372 96.4386 935.601 96.4385C928.966 96.4385 922.651 97.9371 916.658 100.934C910.665 103.93 905.849 108.532 902.211 114.739C898.573 120.946 896.753 128.866 896.753 138.497V248.938H846.027V139.139C846.027 131.005 844.421 123.729 841.211 117.308C838 110.673 833.506 105.535 827.728 101.896C821.949 98.0439 815.206 96.1182 807.501 96.1182C801.08 96.1182 794.873 97.7231 788.88 100.934C782.887 103.93 777.964 108.532 774.111 114.739C770.473 120.946 768.653 128.866 768.653 138.497V248.938H718.249V56.3076H763.517V79.1025C770.58 69.6851 779.249 62.6218 789.522 57.9131C799.796 52.9904 810.604 50.5283 821.948 50.5283C833.72 50.5283 844.743 53.0966 855.017 58.2334C865.29 63.1562 873.851 70.4339 880.7 80.0654C888.191 70.4339 897.609 63.1562 908.953 58.2334C920.297 53.0967 932.497 50.5283 945.553 50.5283Z" fill="white"/>
<path d="M1370.17 130.149C1371.84 133.597 1373.42 136.93 1374.92 140.146L1347 195.179L1278.67 56.3076H1334.53L1370.17 130.149Z" fill="white"/>
<path d="M0 0H49.7876V39.1188H0V0Z" fill="white"/>
<path d="M0 49.7878H49.7876V88.9067H0V49.7878Z" fill="#E94242"/>
<path d="M967.584 397H951.272L943.209 374.188H907.959L900.209 397H883.959L917.522 307.375H934.272L967.584 397ZM939.272 362.062L926.834 326.312C926.459 325.146 926.064 323.271 925.647 320.688H925.397C925.022 323.062 924.605 324.938 924.147 326.312L911.834 362.062H939.272Z" fill="#E94242"/>
<path d="M992.897 397H978.334V302.25H992.897V397Z" fill="#E94242"/>
<path d="M1019.15 319.562C1016.77 319.562 1014.73 318.792 1013.02 317.25C1011.36 315.708 1010.52 313.75 1010.52 311.375C1010.52 309 1011.36 307.021 1013.02 305.438C1014.73 303.854 1016.77 303.062 1019.15 303.062C1021.61 303.062 1023.69 303.854 1025.4 305.438C1027.11 307.021 1027.96 309 1027.96 311.375C1027.96 313.625 1027.11 315.562 1025.4 317.188C1023.69 318.771 1021.61 319.562 1019.15 319.562ZM1026.33 397H1011.83V333H1026.33V397Z" fill="#E94242"/>
<path d="M1141.02 397H1126.52V362.125C1126.52 355.417 1125.56 350.562 1123.65 347.562C1121.77 344.562 1118.58 343.062 1114.08 343.062C1110.29 343.062 1107.06 344.958 1104.4 348.75C1101.77 352.542 1100.46 357.083 1100.46 362.375V397H1085.9V360.938C1085.9 349.021 1081.69 343.062 1073.27 343.062C1069.36 343.062 1066.13 344.854 1063.58 348.438C1061.08 352.021 1059.83 356.667 1059.83 362.375V397H1045.33V333H1059.83V343.125H1060.08C1064.71 335.375 1071.44 331.5 1080.27 331.5C1084.69 331.5 1088.54 332.729 1091.83 335.188C1095.17 337.604 1097.44 340.792 1098.65 344.75C1103.4 335.917 1110.48 331.5 1119.9 331.5C1133.98 331.5 1141.02 340.188 1141.02 357.562V397Z" fill="#E94242"/>
<path d="M1207.83 397H1193.77V387H1193.52C1189.11 394.667 1182.63 398.5 1174.08 398.5C1167.79 398.5 1162.86 396.792 1159.27 393.375C1155.73 389.958 1153.96 385.438 1153.96 379.812C1153.96 367.729 1160.92 360.688 1174.83 358.688L1193.83 356C1193.83 346.875 1189.5 342.312 1180.83 342.312C1173.21 342.312 1166.33 344.938 1160.21 350.188V337.5C1166.96 333.5 1174.75 331.5 1183.58 331.5C1199.75 331.5 1207.83 339.458 1207.83 355.375V397ZM1193.83 365.562L1180.4 367.438C1176.23 367.979 1173.08 369 1170.96 370.5C1168.88 371.958 1167.83 374.542 1167.83 378.25C1167.83 380.958 1168.79 383.188 1170.71 384.938C1172.67 386.646 1175.27 387.5 1178.52 387.5C1182.94 387.5 1186.58 385.958 1189.46 382.875C1192.38 379.75 1193.83 375.833 1193.83 371.125V365.562Z" fill="#E94242"/>
<path d="M1282.58 397H1268.08V360.938C1268.08 348.979 1263.86 343 1255.4 343C1250.98 343 1247.33 344.667 1244.46 348C1241.58 351.292 1240.15 355.458 1240.15 360.5V397H1225.58V333H1240.15V343.625H1240.4C1245.19 335.542 1252.11 331.5 1261.15 331.5C1268.11 331.5 1273.42 333.771 1277.08 338.312C1280.75 342.812 1282.58 349.333 1282.58 357.875V397Z" fill="#E94242"/>
<path d="M1349.46 397H1335.4V387H1335.15C1330.73 394.667 1324.25 398.5 1315.71 398.5C1309.42 398.5 1304.48 396.792 1300.9 393.375C1297.36 389.958 1295.58 385.438 1295.58 379.812C1295.58 367.729 1302.54 360.688 1316.46 358.688L1335.46 356C1335.46 346.875 1331.13 342.312 1322.46 342.312C1314.83 342.312 1307.96 344.938 1301.83 350.188V337.5C1308.58 333.5 1316.38 331.5 1325.21 331.5C1341.38 331.5 1349.46 339.458 1349.46 355.375V397ZM1335.46 365.562L1322.02 367.438C1317.86 367.979 1314.71 369 1312.58 370.5C1310.5 371.958 1309.46 374.542 1309.46 378.25C1309.46 380.958 1310.42 383.188 1312.33 384.938C1314.29 386.646 1316.9 387.5 1320.15 387.5C1324.56 387.5 1328.21 385.958 1331.08 382.875C1334 379.75 1335.46 375.833 1335.46 371.125V365.562Z" fill="#E94242"/>
<path d="M1425.27 397H1406.9L1382.02 366.25H1381.77V397H1367.21V302.25H1381.77V362.312H1382.02L1405.52 333H1422.96L1396.52 363.875L1425.27 397Z" fill="#E94242"/>
<path d="M1483.58 397H1469.52V387H1469.27C1464.86 394.667 1458.38 398.5 1449.83 398.5C1443.54 398.5 1438.61 396.792 1435.02 393.375C1431.48 389.958 1429.71 385.438 1429.71 379.812C1429.71 367.729 1436.67 360.688 1450.58 358.688L1469.58 356C1469.58 346.875 1465.25 342.312 1456.58 342.312C1448.96 342.312 1442.08 344.938 1435.96 350.188V337.5C1442.71 333.5 1450.5 331.5 1459.33 331.5C1475.5 331.5 1483.58 339.458 1483.58 355.375V397ZM1469.58 365.562L1456.15 367.438C1451.98 367.979 1448.83 369 1446.71 370.5C1444.63 371.958 1443.58 374.542 1443.58 378.25C1443.58 380.958 1444.54 383.188 1446.46 384.938C1448.42 386.646 1451.02 387.5 1454.27 387.5C1458.69 387.5 1462.33 385.958 1465.21 382.875C1468.13 379.75 1469.58 375.833 1469.58 371.125V365.562Z" fill="#E94242"/>
</svg>
